# xmcd
#
# Track frame offsets:
#	150
#	26522
#	54328
#	94163
#	116970
#	147174
#	169590
#	196519
#	214006
#	234084
#	253080
#	267427
#	281968
#	298250
#	310938
#
# Disc length: 4358 seconds
#
# Revision: 1
# Processed by: cddbd v1.5.1PL0 Copyright (c) Steve Scherf et al.
# Submitted via: EasyCDDAExtractor 7.0.3.1
#
DISCID=de11040f
DTITLE=Various Artist - DEE JAY MIX CLUB 2005 SIERPIEÑ PART 2
DYEAR=2005
DGENRE=Dance
TTITLE0=EXTASY  - PERINBABA(EXTENTED MIX)
TTITLE1=S-FORCE ONE - DJ CONVENTION(DJ CONVENTION BASS-T REMIX)
TTITLE2=PAUL VAN DYK FEAT WAYNE JACKSON - THE OTHER SIDE(ORIGINAL MIX
TTITLE3=PAPS'N'SKAR - VIENI CON ME(DJ MAXWELL STAR ORIGINAL EXTENTED)
TTITLE4=BENASSI BROS FEAT. DHANY - EVERY SINGLE DAY(CLUB VERSION)
TTITLE5=BILLY MORE - GIMME LOVE(TECK MIX)
TTITLE6=DJ ANTOINE - ALL WE NEED(SYNTAX ERROR MIX)
TTITLE7=JOANNA ZIMMER - I BELIEVE(GIVE A LITTLE BIT)(RADIO RMX)
TTITLE8=KALEIDOSKOPIO - VOCE ME APARECAU(DJ EDEN RMX0
TTITLE9=BOMBA - MONEY(CLUB RMX)
TTITLE10=EL MEDICO - CHUPA CHUPA(SINGLE VERSION)
TTITLE11=SQUEEZE UP - BON BON DRUM(RADIO EDIT)
TTITLE12=CRAIG DAVID - ALL THE WAY(ALBUM VERSION)
TTITLE13=DMX - GIVE 'EM WHAT THEY WANT(ALBUM VERSION)
TTITLE14=IVE MENDES - NIGHT NIGHT(ALBUM VERSION)
EXTD=
EXTT0=
EXTT1=
EXTT2=
EXTT3=
EXTT4=
EXTT5=
EXTT6=
EXTT7=
EXTT8=
EXTT9=
EXTT10=
EXTT11=
EXTT12=
EXTT13=
EXTT14=
PLAYORDER=
